<svg 
    width="200px" 
    height="200px" 
    viewBox="0 0 64 64" 
    version="1.1" 
    xmlns="http://www.w3.org/2000/svg" 
    xmlns:xlink="http://www.w3.org/1999/xlink">
  <!-- Torch Flame -->
  <path 
    fill="#FFA500" 
    d="M32 2c-5 5-5 10-2 14-3-2-4-6-2-10-2 1-3 4-1 7-1-2 0-4 1-5-1 0-2 1-2 2 0-2 1-4 2-4 0-1-1 0-2 0 1-1 2-2 4-2 0-1-1-2-2-2 2-1 4-1 5 0 1 0 1-1 1-1 1 0 1 1 1 2 0 1 1 0 1 0 0 1 0 2-1 3 1-1 2-1 2-2 1 1 1 3-1 5 1-1 2-2 2-4 1 1 1 3 0 5 1-1 2-3 1-5 2 2 2 5-1 7 1-3 0-6-2-8 3 3 3 9-2 14C37 12 37 7 32 2z"
  />
  </svg>
<!-- 
  <!-- Medal Ribbon -->
  <path 
    fill="#1E90FF" 
    d="M30,16 L34,16 L34,24 L30,24 Z" 
  />
<!-- 
  Medal -->
  <circle 
    cx="32" 
    cy="28" 
    r="4" 
    fill="#FFD700" 
  /> -->
</svg>
